<?xml version="1.0" encoding="UTF-8" standalone="no"?>
<!-- Created with Inkscape (http://www.inkscape.org/) -->

<svg
   width="2500"
   height="2500"
   viewBox="0 0 2500 2500"
   version="1.1"
   id="svg1"
   xml:space="preserve"
   xmlns="http://www.w3.org/2000/svg"
   xmlns:svg="http://www.w3.org/2000/svg"><defs
     id="defs1" /><g
     id="layer1"><path
       style="fill:#1589ff;fill-opacity:1;stroke-width:1.086"
       d="m 1743.2982,1767.1772 c -12.1078,-1.5836 -32.9088,-5.0243 -46.2248,-7.6459 -13.3157,-2.6216 -35.7703,-8.2906 -49.8987,-12.5978 -14.1286,-4.3072 -37.7377,-13.8411 -52.4652,-21.1863 -14.7272,-7.3453 -34.54,-18.9737 -44.0282,-25.8409 -9.4884,-6.8672 -24.6637,-20.621 -33.7228,-30.5639 -9.0594,-9.9429 -20.4286,-24.3464 -25.2653,-32.0077 -4.8365,-7.6613 -11.6301,-20.7386 -15.0968,-29.0609 -3.4665,-8.3222 -8.4965,-22.9483 -11.1778,-32.5024 -4.0883,-14.5677 -5.0668,-37.4905 -6.0636,-142.0432 l -1.1885,-124.6723 -207.4595,0.8537 c -117.069,0.4817 -209.2548,2.0729 -211.5799,3.6521 -3.1244,2.122 -0.9955,4.4653 8.8058,9.6936 7.1093,3.7924 24.1532,9.8218 37.8753,13.3989 13.7223,3.577 44.4653,10.0762 68.318,14.4428 23.8528,4.3665 53.5718,10.6812 66.0426,14.0325 12.4706,3.3514 31.9198,9.7432 43.2203,14.2042 11.3007,4.4609 30.964,14.5378 43.6962,22.3931 12.7323,7.8552 30.7221,22.3158 39.9774,32.1346 9.2554,9.8188 20.8452,25.8378 25.755,35.5978 4.91,9.76 11.1831,25.9854 13.9399,36.0565 3.0061,10.9807 5.0127,29.0535 5.0127,45.146 0,16.0925 -2.0066,34.1653 -5.0127,45.1461 -2.7568,10.071 -9.156,26.5462 -14.2204,36.6114 -5.0641,10.0653 -17.2617,26.9206 -27.1054,37.4563 -9.8438,10.5357 -27.3035,25.0485 -38.7993,32.2509 -11.4957,7.2023 -30.1043,16.4703 -41.3526,20.5956 -11.2482,4.1253 -30.8044,9.9328 -43.4583,12.9057 -21.3726,5.0211 -56.7916,5.4051 -498.5133,5.4051 -475.50618,0 -475.50618,0 -507.94803,-6.9414 -17.84304,-3.8178 -41.61834,-10.2642 -52.83403,-14.3256 -11.2157,-4.0613 -27.8245,-10.8841 -36.90845,-15.1619 -9.08394,-4.2778 -24.13423,-12.9169 -33.44508,-19.1981 -9.310828,-6.2812 -24.205417,-18.6221 -33.099082,-27.4242 -8.893675,-8.802 -21.86184,-25.2209 -28.818149,-36.4864 C 23.29916,1610.2296 13.925671,1590.0317 9.4254959,1576.6109 1.2433582,1552.2095 1.2433582,1552.2095 0.4144527,1336.3008 L -0.4144527,1120.3922 H 149.25036 298.91519 l 0.86048,189.5972 c 0.86046,189.5971 0.86046,189.5971 7.67298,204.1839 4.02268,8.6132 10.96807,17.2952 16.96002,21.2006 5.58112,3.6376 15.19931,7.3284 21.37376,8.2018 7.61502,1.0772 15.54554,-0.427 24.6536,-4.6758 9.02358,-4.2095 16.14464,-10.5932 21.71253,-19.4643 8.28517,-13.2005 8.28517,-13.2005 9.10423,-206.122 l 0.81905,-192.9214 h 154.01398 154.01396 v 218.2302 218.2302 l 191.52331,-0.017 c 125.68901,-0.011 195.36931,-1.1435 202.71221,-3.2939 6.3356,-1.8554 10.6982,-4.8689 10.0576,-6.9475 -0.6221,-2.019 -6.3838,-6.7558 -12.8035,-10.5263 -8.4306,-4.9514 -22.2293,-8.178 -49.6833,-11.6178 -20.906,-2.6193 -59.14427,-7.7028 -84.97428,-11.2967 -25.82997,-3.5939 -58.12563,-9.9327 -71.76814,-14.0862 -13.64251,-4.1536 -35.43654,-13.3339 -48.43118,-20.4007 -15.94957,-8.6738 -29.85147,-19.4323 -42.78395,-33.1098 -10.53653,-11.1435 -23.38881,-28.7623 -28.56063,-39.1527 -5.17179,-10.3904 -11.55436,-28.4989 -14.18346,-40.2411 -3.56224,-15.9097 -4.3412,-29.2362 -3.05718,-52.3039 0.94766,-17.0251 3.85029,-39.3124 6.45033,-49.5275 2.59999,-10.215 9.87727,-29.0369 16.1717,-41.8263 6.29441,-12.7895 18.36269,-30.783 26.81836,-39.9857 8.45568,-9.2027 22.86626,-21.839 32.02355,-28.0808 9.15727,-6.2417 27.02121,-14.9513 39.69763,-19.3546 12.67642,-4.4034 33.38022,-9.5103 46.00842,-11.3489 15.5344,-2.2616 155.32293,-3.3428 432.21143,-3.3428 H 1766.78 l 0.016,186.5018 c 0.011,118.7407 1.1176,190.6843 3.0479,198.0135 1.6673,6.3316 6.5516,15.9235 10.8537,21.3153 4.302,5.3919 12.2459,11.7528 17.6532,14.1354 6.2002,2.7321 13.7167,3.5633 20.3519,2.2506 6.4424,-1.2746 14.7355,-6.5265 21.3938,-13.5482 7.0126,-7.3954 12.0804,-16.5239 14.274,-25.7104 2.3884,-10.0035 3.4009,-69.1246 3.4009,-198.6008 v -184.3574 h 321.4071 321.407 v 311.0942 311.0941 H 2353.8247 2207.0636 V 1525.898 1309.2155 h -23.1843 -23.1842 l -1.2925,126.1402 c -1.2926,126.1402 -1.2926,126.1402 -9.2802,153.9161 -4.3933,15.2768 -11.9077,35.5323 -16.699,45.0123 -4.7912,9.4801 -14.4734,24.6444 -21.516,33.6984 -7.0425,9.0541 -19.8836,22.6033 -28.5357,30.1095 -8.6522,7.5062 -27.0317,19.8159 -40.8432,27.3549 -13.8114,7.5389 -35.6055,17.334 -48.4311,21.7667 -12.8258,4.4328 -38.5092,10.8996 -57.0745,14.3708 -25.8414,4.8317 -49.9264,6.5646 -102.7327,7.3917 -37.9379,0.5943 -78.8842,-0.2152 -90.992,-1.7989 z m 167.3078,-47.8829 c 16.9509,-2.5301 41.3865,-7.448 54.3015,-10.9287 12.9149,-3.4808 35.6647,-12.542 50.5547,-20.1359 18.5272,-9.4491 33.0487,-19.7028 46.0047,-32.4839 10.4124,-10.2721 23.1383,-25.5901 28.2798,-34.0399 5.1415,-8.4498 12.7938,-26.1504 17.005,-39.3345 7.6567,-23.971 7.6567,-23.971 8.6909,-171.7794 l 1.0343,-147.8085 h 67.3075 67.3075 v 218.2302 218.2303 h 102.7328 102.7327 v -266.2099 -266.21 h -278.7528 -278.7528 l -0.8272,174.1199 c -0.8202,172.6392 -0.8828,174.247 -7.3695,189.0694 -3.5983,8.2223 -10.5815,20.3275 -15.5179,26.9006 -5.2222,6.9535 -16.4907,15.9115 -26.9477,21.4222 -13.6963,7.2178 -21.9263,9.4711 -34.5918,9.4711 -9.1408,0 -23.1179,-2.335 -31.06,-5.1889 -9.4821,-3.4073 -19.5849,-10.6145 -29.4238,-20.9903 -9.7787,-10.3128 -17.4342,-22.2195 -22.0389,-34.2783 -7.0558,-18.4769 -7.0558,-18.4769 -7.9281,-189.5012 l -0.8723,-171.0245 h -395.647 c -384.58228,0 -396.28193,0.1712 -418.34947,6.1233 -12.48634,3.3678 -29.07202,9.7793 -36.85709,14.2478 -7.78507,4.4685 -19.10853,12.4308 -25.16327,17.6941 -6.05473,5.2633 -16.13847,17.9398 -22.4083,28.17 -6.26984,10.2303 -13.33385,25.6304 -15.69785,34.2226 -2.36398,8.5922 -5.61147,26.575 -7.21665,39.9618 -2.2733,18.9588 -1.97191,29.1273 1.36324,45.9961 2.35496,11.911 7.57753,27.5872 11.60566,34.836 4.02814,7.2488 14.38356,19.9815 23.01205,28.295 8.62849,8.3136 24.30843,19.5451 34.84436,24.9589 10.53592,5.4138 27.07144,12.0064 36.74562,14.6501 9.67418,2.6436 35.31815,7.5294 56.98661,10.8571 21.66847,3.3277 59.03609,8.2955 83.03909,11.0394 24.4451,2.7944 50.0838,7.5702 58.2864,10.8571 8.0542,3.2275 19.1467,9.0792 24.6496,13.0038 5.5028,3.9247 13.6161,12.5885 18.0293,19.2529 6.2699,9.4681 8.0242,15.6785 8.0242,28.4061 0,11.6659 -1.7397,18.7692 -6.1304,25.0284 -3.3717,4.8067 -11.9572,12.2219 -19.0789,16.4782 -12.9484,7.7386 -12.9484,7.7386 -239.69437,8.5863 l -226.74599,0.8477 V 1383.5805 1166.8241 H 556.00057 445.9297 v 160.8118 c 0,107.2776 -1.09868,166.2725 -3.30032,177.2153 -1.81514,9.022 -6.40602,22.6719 -10.2019,30.3332 -3.79588,7.6613 -9.24521,16.7507 -12.10962,20.1986 -2.86442,3.4479 -9.92169,10.0372 -15.68285,14.6427 -5.76117,4.6056 -16.32797,10.578 -23.48178,13.2721 -7.15383,2.694 -20.71565,4.8829 -30.13742,4.8641 -9.42173,-0.019 -23.58157,-2.2939 -31.46628,-5.0558 -8.04973,-2.8197 -20.74464,-11.0982 -28.95149,-18.8796 -8.45307,-8.015 -18.08142,-21.3011 -22.83534,-31.5104 -8.2197,-17.6522 -8.2197,-17.6522 -9.04685,-191.7721 l -0.82717,-174.1199 H 150.84639 43.804099 v 186.9496 c 0,177.4498 0.294732,187.9558 5.800196,206.7535 3.190104,10.8923 9.872524,26.2878 14.84983,34.2124 4.977297,7.9246 16.910373,22.0833 26.517934,31.4638 9.607571,9.3805 25.709801,21.8538 35.782781,27.7186 10.07296,5.8647 28.22084,14.3903 40.32864,18.9458 12.10779,4.5555 33.93934,10.9201 48.51456,14.1437 14.57523,3.2235 44.95477,7.3894 67.51014,9.2576 28.67411,2.3748 169.47299,2.8293 468.08471,1.5106 272.76041,-1.2046 434.92651,-3.061 448.80451,-5.1377 11.9514,-1.7885 31.7642,-6.7049 44.0285,-10.9255 12.2641,-4.2205 29.3302,-11.915 37.9243,-17.0988 8.5943,-5.1838 22.8309,-16.8434 31.6368,-25.9101 9.1313,-9.4016 19.1314,-23.6731 23.2729,-33.2131 3.9941,-9.2005 8.7683,-24.6375 10.6092,-34.3046 2.5208,-13.2379 2.503,-22.9663 -0.073,-39.4114 -1.8806,-12.0092 -6.8218,-28.916 -10.9805,-37.5708 -4.1586,-8.6548 -14.0866,-22.4389 -22.0621,-30.6314 -7.9754,-8.1924 -22.8758,-19.8346 -33.1117,-25.8713 -10.236,-6.0368 -28.347,-14.5018 -40.2463,-18.8111 -11.8994,-4.3093 -30.221,-9.9747 -40.7143,-12.5898 -10.4934,-2.6152 -38.1573,-8.1171 -61.4751,-12.2265 -23.3181,-4.1094 -54.7238,-10.9319 -69.7906,-15.161 -15.067,-4.2291 -34.5336,-11.251 -43.2591,-15.6043 -8.7255,-4.3532 -19.9171,-12.7824 -24.8703,-18.7317 -7.33615,-8.8116 -9.00554,-13.5314 -9.00554,-25.4609 0,-8.3324 2.34927,-19.2927 5.45074,-25.4298 3.7696,-7.4592 10.7207,-13.6501 22.537,-20.0723 17.0863,-9.2863 17.0863,-9.2863 249.9137,-10.1664 l 232.8272,-0.88 v 138.9796 c 0,81.5873 1.2373,145.8595 2.996,155.6398 1.6479,9.1631 6.7104,25.0241 11.2503,35.2464 4.5399,10.2225 13.8756,25.4302 20.7459,33.7949 6.8703,8.3648 18.6486,20.6299 26.1739,27.256 7.5251,6.626 26.8907,18.9206 43.0344,27.3212 16.1438,8.4008 41.2398,18.8652 55.7692,23.2544 14.5294,4.3892 42.2672,10.5487 61.6396,13.6878 25.0956,4.0664 52.5235,5.77 95.3948,5.9252 38.556,0.1396 71.2438,-1.4347 90.992,-4.3822 z m 393.3198,-667.8561 c -10.4934,-3.7867 -25.0957,-10.6153 -32.4494,-15.1746 -7.354,-4.5594 -18.8708,-13.9187 -25.5932,-20.7985 -6.7219,-6.8797 -16.8476,-19.86489 -22.5011,-28.8558 -5.6537,-8.99094 -13.0026,-24.7049 -16.3313,-34.91994 -3.3285,-10.21503 -6.8158,-28.32352 -7.7495,-40.24105 -0.9338,-11.91753 -0.2445,-30.02601 1.5315,-40.24104 1.7762,-10.21504 8.5157,-29.90291 14.9764,-43.75082 8.6107,-18.45485 16.3597,-29.68139 29.0205,-42.04294 9.5002,-9.2757 23.4049,-20.65458 30.8994,-25.28639 7.4943,-4.63181 24.464,-11.31174 37.7101,-14.84428 18.2416,-4.86472 29.4434,-6.02217 46.177,-4.7713 12.5194,0.93584 30.7245,4.98218 42.0115,9.33765 10.955,4.22738 25.4845,11.67146 32.2876,16.54241 6.8028,4.87094 18.3401,15.23782 25.6383,23.03752 7.2982,7.79969 17.6956,22.93892 23.1054,33.64272 5.4097,10.7038 11.6407,26.6096 13.8465,35.34618 2.2059,8.73658 3.9941,27.02839 3.9737,40.64843 -0.02,13.62005 -1.4058,31.03203 -3.079,38.69332 -1.6732,7.66127 -7.1696,22.77269 -12.2143,33.58091 -5.0447,10.80823 -14.8123,26.26702 -21.7059,34.35282 -6.8935,8.0859 -19.5857,19.8236 -28.2047,26.0839 -8.6192,6.2604 -24.858,14.8007 -36.0862,18.9787 -16.1993,6.0276 -26.1734,7.5932 -48.2996,7.5816 -21.1186,-0.011 -32.5142,-1.6852 -46.9637,-6.8995 z m 68.5971,-40.905 c 11.5614,-2.5832 26.2111,-8.5967 34.3338,-14.09367 7.7926,-5.27341 18.611,-14.77415 24.0412,-21.11275 5.43,-6.33862 12.7642,-17.82352 16.298,-25.52201 3.5339,-7.69852 7.8542,-22.14901 9.6006,-32.11225 2.3363,-13.32782 2.2697,-23.17708 -0.2517,-37.27028 -1.8851,-10.5354 -7.7268,-27.36591 -12.9813,-37.40113 -5.5969,-10.68826 -15.7124,-23.55796 -24.422,-31.07065 -8.1775,-7.05366 -22.5868,-15.89328 -32.0206,-19.64359 -14.1211,-5.61369 -21.6038,-6.60223 -42.3392,-5.59353 -20.0004,0.97294 -28.6067,2.98983 -41.7959,9.79499 -9.1351,4.71337 -22.4767,14.75755 -29.648,22.32041 -7.1714,7.56286 -16.7615,21.74544 -21.3114,31.51685 -7.4012,15.89495 -8.2727,21.0316 -8.2727,48.76846 0,28.79899 0.6868,32.47456 9.6629,51.71911 5.8006,12.43652 14.5994,25.20903 22.014,31.95597 6.7934,6.18149 18.5941,14.6044 26.2241,18.71757 7.6299,4.1132 20.8384,8.7019 29.3523,10.1972 8.5137,1.4953 16.8005,2.8574 18.4149,3.0269 1.6144,0.1694 12.0098,-1.7195 23.101,-4.1976 z"
       id="path5" /><path
       style="fill:#1589ff"
       d="M 0,0 2500,2500 Z"
       id="path2" /><path
       style="fill:#ffffff;stroke:#000000;stroke-width:3.90525"
       d="m 1739.7872,1717.7836 c -105.1235,-13.2361 -189.1291,-60.3536 -218.5739,-122.5948 -14.3383,-30.3087 -17.3798,-67.7256 -17.5542,-215.9564 l -0.1393,-118.4296 -233.3385,1.3265 c -204.5202,1.1628 -235.0661,2.1055 -247.3274,7.6332 -21.5801,9.7288 -30.92135,24.2351 -30.92135,48.0187 0,17.6487 1.59537,21.7314 12.69205,32.48 17.5487,16.9982 52.7153,29.2283 125.9442,43.8006 106.34,21.1612 141.5643,34.5274 175.4524,66.5774 28.2814,26.7473 39.0641,51.4398 39.1892,89.7436 0.2123,64.9603 -42.5385,112.5623 -121.5873,135.3847 -20.6014,5.9478 -66.0414,6.7207 -479.12703,8.1497 -325.45496,1.1258 -466.04606,0.3115 -490.1084,-2.839 -95.78975,-12.5415 -167.639826,-53.8773 -194.943295,-112.1521 l -10.628797,-22.6855 -1.114807,-194.286 -1.114808,-194.286 H 152.16611 257.74625 v 168.1489 c 0,110.8646 1.48559,174.0487 4.3607,185.4668 5.4318,21.5717 30.74107,51.1065 52.11421,60.815 18.88738,8.5795 51.95594,9.4552 70.13974,1.8575 22.59045,-9.4389 44.14886,-32.2418 53.25818,-56.3327 7.95374,-21.0348 8.48368,-30.6679 10.50996,-191.0536 l 2.13386,-168.9019 h 106.8145 106.81446 v 216.9425 216.9425 l 229.72404,-1.1776 229.7241,-1.1777 14.2733,-9.7631 c 17.3598,-11.8743 23.9276,-26.3636 21.1926,-46.7538 -2.8224,-21.0429 -15.6348,-37.5913 -37.8015,-48.824 -19.6868,-9.9761 -32.1954,-12.4707 -129.07185,-25.7411 -98.52581,-13.4963 -142.08458,-32.6642 -170.58573,-75.0654 -17.31188,-25.7548 -22.70264,-54.6186 -17.21663,-92.1828 8.70733,-59.6215 41.75283,-103.8011 91.18532,-121.9087 l 24.36998,-8.9269 401.26401,-1.4431 401.2641,-1.4431 v 167.478 c 0,187.5509 0.7166,193.692 26.0545,223.2937 42.0769,49.1574 109.787,39.6606 140.0524,-19.6432 9.0822,-17.7961 9.1952,-19.6319 11.9606,-194.286 l 2.7919,-176.3202 h 276.6634 276.6635 v 265.5568 265.5567 h -101.5364 -101.5364 v -218.6938 -218.6938 h -70.2944 -70.2945 v 143.6737 c 0,154.499 -1.4211,168.4235 -21.1144,206.8878 -21.3639,41.7273 -77.9036,81.5823 -137.0481,96.6056 -51.3221,13.0363 -150.6309,17.3001 -214.7885,9.222 z"
       id="path6" /><path
       style="fill:#ffffff;stroke:#000000;stroke-width:2.76143"
       d="m 2329.2629,1009.4465 c -19.176,-4.8987 -25.6172,-7.8734 -41.0142,-18.94137 -16.1406,-11.6025 -30.0504,-30.46758 -37.8745,-51.36686 -4.8202,-12.87554 -5.629,-20.25902 -4.8674,-44.43621 0.796,-25.27122 1.9323,-31.07015 8.8474,-45.15329 10.028,-20.42265 32.5413,-43.07815 52.5222,-52.85392 13.3695,-6.54108 19.0852,-7.61082 42.3919,-7.93407 24.8352,-0.34445 28.2191,0.27331 43.3333,7.91065 44.4073,22.43952 71.3463,74.64419 62.4313,120.98462 -9.1149,47.37917 -38.9236,79.69747 -84.4451,91.55435 -18.962,4.9389 -22.8291,4.961 -41.3249,0.2361 z"
       id="path7" /></g></svg>
